Coordinates
version=1
nRows=13
nColumns=34
inDegrees=yes

Units are S.I. units (second, meters, Newtons, ...)
Angles are in degrees.

endheader
time	pelvis_tilt	pelvis_list	pelvis_rotation	pelvis_tx	pelvis_ty	pelvis_tz	hip_flexion_r	hip_adduction_r	hip_rotation_r	knee_angle_r	ankle_angle_r	subtalar_angle_r	mtp_angle_r	hip_flexion_l	hip_adduction_l	hip_rotation_l	knee_angle_l	socket_flexion	socket_adduction	socket_rotation	socket_tx	socket_ty	socket_tz	pros_ankle_rx	pros_ankle_ry	pros_ankle_rz	pros_ankle_tx	pros_ankle_ty	pros_ankle_tz	foot_flex	lumbar_extension	lumbar_bending	lumbar_rotation
      0.00000000	     -5.00443095	     -9.05933188	     -6.90522953	     -0.75851933	      1.03684695	      0.32315402	    -17.10458194	     10.08546927	     -4.43991975	     -3.35773102	     -0.54941221	     26.09225313	     36.87998096	     24.06214545	     -9.70027011	     -1.19109686	      3.80729039	      3.94135622	      0.00000000	      0.00000000	      0.00000000	     -0.00271505	      0.00000000	      0.00000000	      0.00000000	      0.00000000	      0.00000000	      0.00000000	      0.00000000	      0.22556991	    -14.84864997	      4.32330027	      7.96204675
      0.00416667	     -5.00743267	     -9.09050435	     -7.00368021	     -0.75322141	      1.03575710	      0.32343391	    -17.30155097	     10.03589147	     -4.36440824	     -3.55709487	     -0.57634778	     26.12610177	     36.90078586	     24.08798995	     -9.68932213	     -1.14808846	      3.73959032	      3.99553686	      0.00000000	      0.00000000	      0.00000000	     -0.00294914	      0.00000000	      0.00000000	      0.00000000	      0.00000000	      0.00000000	      0.00000000	      0.00000000	     -0.16760043	    -14.80188512	      4.27946156	      7.99002513
      0.00833333	     -5.00250989	     -9.12845954	     -7.11736816	     -0.74773167	      1.03464081	      0.32373988	    -17.50210522	      9.98297519	     -4.27704038	     -3.78327895	     -0.60488193	     26.17774356	     36.93797903	     24.11121786	     -9.69031431	     -1.12687227	      3.63515563	      4.03824803	      0.00000000	      0.00000000	      0.00000000	     -0.00325966	      0.00000000	      0.00000000	      0.00000000	      0.00000000	      0.00000000	      0.00000000	      0.00000000	     -0.60115812	    -14.76778091	      4.23246827	      8.05101830
      0.01250000	     -4.98718322	     -9.16671242	     -7.22388993	     -0.74204446	      1.03350256	      0.32404022	    -17.70676753	      9.92989317	     -4.17931062	     -4.04348715	     -0.63649512	     26.23612753	     36.98450896	     24.12939811	     -9.68651252	     -1.10726932	      3.50219209	      4.08970683	      0.00000000	      0.00000000	      0.00000000	     -0.00362055	      0.00000000	      0.00000000	      0.00000000	      0.00000000	      0.00000000	      0.00000000	      0.00000000	     -1.03824075	    -14.73896589	      4.17680258	      8.12402715
      0.01666667	     -4.97292852	     -9.20314383	     -7.37152553	     -0.73620159	      1.03235289	      0.32444879	    -17.90807806	      9.85619588	     -4.08605341	     -4.32486012	     -0.66861216	     26.31272110	     37.05310714	     24.13680332	     -9.70759514	     -1.09777361	      3.32823641	      4.12633394	      0.00000000	      0.00000000	      0.00000000	     -0.00412032	      0.00000000	      0.00000000	      0.00000000	      0.00000000	      0.00000000	      0.00000000	      0.00000000	     -1.52416076	    -14.72842022	      4.11159299	      8.23236428
      0.02083333	     -4.93345979	     -9.25586708	     -7.59809688	     -0.73028226	      1.03124177	      0.32491324	    -18.09264825	      9.75333931	     -3.98720248	     -4.68986026	     -0.69203629	     26.47679093	     37.22461647	     24.12880950	     -9.77402053	     -1.18942329	      3.02687480	      4.07965017	      0.00000000	      0.00000000	      0.00000000	     -0.00477176	      0.00000000	      0.00000000	      0.00000000	      0.00000000	      0.00000000	      0.00000000	      0.00000000	     -2.01790337	    -14.80637659	      4.01691498	      8.49313781
      0.02500000	     -4.90969794	     -9.28723656	     -7.67938153	     -0.72423047	      1.03005153	      0.32522122	    -18.29479420	      9.69599233	     -3.87967717	     -4.99311812	     -0.73957669	     26.55662021	     37.30821673	     24.14802087	     -9.76267372	     -1.14669693	      2.81979174	      4.19344565	      0.00000000	      0.00000000	      0.00000000	     -0.00529280	      0.00000000	      0.00000000	      0.00000000	      0.00000000	      0.00000000	      0.00000000	      0.00000000	     -2.41110848	    -14.77820145	      3.95310498	      8.59282796
      0.02916667	     -4.88356046	     -9.33171139	     -7.84102499	     -0.71808964	      1.02888607	      0.32568416	    -18.47568995	      9.61623851	     -3.79543574	     -5.34234352	     -0.81035432	     26.65416263	     37.42932792	     24.13223478	     -9.81201615	     -1.12817855	      2.56500058	      4.25628115	      0.00000000	      0.00000000	      0.00000000	     -0.00609174	      0.00000000	      0.00000000	      0.00000000	      0.00000000	      0.00000000	      0.00000000	      0.00000000	     -2.93069895	    -14.77462529	      3.86390461	      8.72629521
      0.03333333	     -4.77790457	     -9.38916930	     -8.13269242	     -0.71217981	      1.02786182	      0.32618964	    -18.53868928	      9.43452144	     -3.90172901	     -6.05172812	     -0.72727921	     27.44414407	     38.82450712	     24.24283249	     -9.90864393	     -1.37215379	      1.59197450	      3.86646372	      0.00000000	      0.00000000	      0.00000000	     -0.00715397	      0.00000000	      0.00000000	      0.00000000	      0.00000000	      0.00000000	      0.00000000	      0.00000000	     -3.37306774	    -15.06372296	      3.71218448	      9.68066733
      0.03750000	     -4.76598651	     -9.42747045	     -8.21412502	     -0.70586477	      1.02668448	      0.32660965	    -18.70718062	      9.38413564	     -3.82497676	     -6.39443783	     -0.86305016	     27.46567490	     38.92481690	     24.22022474	     -9.93441238	     -1.27611046	      1.39772091	      4.06448669	      0.00000000	      0.00000000	      0.00000000	     -0.00798096	      0.00000000	      0.00000000	      0.00000000	      0.00000000	      0.00000000	      0.00000000	      0.00000000	     -3.77545354	    -14.96833125	      3.62337775	      9.62920309
      0.04166667	     -4.76013902	     -9.46293078	     -8.34380430	     -0.69950322	      1.02556423	      0.32696331	    -18.82341306	      9.29073206	     -3.75566698	     -6.80173871	     -1.04579374	     27.50591861	     39.08421678	     24.19308468	     -9.97082614	     -1.26054024	      1.13782824	      4.21402504	      0.00000000	      0.00000000	      0.00000000	     -0.00894600	      0.00000000	      0.00000000	      0.00000000	      0.00000000	      0.00000000	      0.00000000	      0.00000000	     -4.22888187	    -14.93856987	      3.53048903	      9.61677222
      0.04583333	     -4.88373052	     -9.46818944	     -8.43188406	     -0.69325975	      1.02401903	      0.32723896	    -18.58510708	      9.12737605	     -4.33357643	     -7.51696018	     -1.54686005	     28.29269245	     44.73639891	     24.63410175	     -9.96641245	     -1.25149971	      0.00026796	      3.85839330	      0.00000000	      0.00000000	      0.00000000	     -0.01021558	      0.00000000	      0.00000000	      0.00000000	      0.00000000	      0.00000000	      0.00000000	      0.00000000	     -4.59115570	    -14.84549504	      3.39859295	      9.72389416
      0.05000000	     -4.84929121	     -9.48358012	     -8.47383036	     -0.68682832	      1.02300817	      0.32755984	    -18.75163136	      9.05709229	     -4.21666639	     -7.86373851	     -1.68009427	     28.28147726	     44.76101805	     24.56784560	     -9.95805138	     -1.20439658	     -0.24184541	      4.10987645	      0.00000000	      0.00000000	      0.00000000	     -0.01120770	      0.00000000	      0.00000000	      0.00000000	      0.00000000	      0.00000000	      0.00000000	      0.00000000	     -4.88155665	    -14.76727003	      3.34321971	      9.72261373
